<mxfile host="Electron" modified="2024-09-10T21:25:38.826Z" agent="Mozilla/5.0 (Windows NT 10.0; Win64; x64) AppleWebKit/537.36 (KHTML, like Gecko) draw.io/24.2.5 Chrome/120.0.6099.109 Electron/28.1.0 Safari/537.36" version="24.2.5" etag="TaWJegTi3cIc3p3ifodD" type="device">
  <diagram id="qvqIMWZhLYQI7_66ceEl" name="Page-1">
    <mxGraphModel dx="2049" dy="1194" grid="1" gridSize="10" guides="1" tooltips="1" connect="1" arrows="1" fold="1" page="1" pageScale="1" pageWidth="850" pageHeight="1100" background="none" math="0" shadow="0">
      <root>
        <mxCell id="0" />
        <mxCell id="1" parent="0" />
        <mxCell id="A__z8Hzm43A7AwqE4cdJ-21" style="edgeStyle=orthogonalEdgeStyle;rounded=0;orthogonalLoop=1;jettySize=auto;html=1;entryX=0;entryY=0.5;entryDx=0;entryDy=0;" edge="1" parent="1" source="A__z8Hzm43A7AwqE4cdJ-18" target="A__z8Hzm43A7AwqE4cdJ-20">
          <mxGeometry relative="1" as="geometry" />
        </mxCell>
        <mxCell id="A__z8Hzm43A7AwqE4cdJ-18" value="&lt;b&gt;&lt;font style=&quot;font-size: 14px;&quot;&gt;ISR&lt;/font&gt;&lt;/b&gt;" style="rounded=1;whiteSpace=wrap;html=1;strokeWidth=2;" vertex="1" parent="1">
          <mxGeometry x="140" y="395" width="120" height="60" as="geometry" />
        </mxCell>
        <mxCell id="A__z8Hzm43A7AwqE4cdJ-19" value="&lt;span style=&quot;font-size: 14px;&quot;&gt;&lt;b&gt;taskHandler&lt;/b&gt;&lt;/span&gt;" style="rounded=1;whiteSpace=wrap;html=1;strokeWidth=2;" vertex="1" parent="1">
          <mxGeometry x="470" y="395" width="120" height="60" as="geometry" />
        </mxCell>
        <mxCell id="A__z8Hzm43A7AwqE4cdJ-22" style="edgeStyle=orthogonalEdgeStyle;rounded=0;orthogonalLoop=1;jettySize=auto;html=1;exitX=1;exitY=0.5;exitDx=0;exitDy=0;" edge="1" parent="1" source="A__z8Hzm43A7AwqE4cdJ-20" target="A__z8Hzm43A7AwqE4cdJ-19">
          <mxGeometry relative="1" as="geometry" />
        </mxCell>
        <mxCell id="A__z8Hzm43A7AwqE4cdJ-20" value="semaphore" style="rounded=0;whiteSpace=wrap;html=1;" vertex="1" parent="1">
          <mxGeometry x="330" y="410" width="80" height="30" as="geometry" />
        </mxCell>
        <mxCell id="A__z8Hzm43A7AwqE4cdJ-23" value="Take" style="text;html=1;align=center;verticalAlign=middle;whiteSpace=wrap;rounded=0;" vertex="1" parent="1">
          <mxGeometry x="410" y="395" width="60" height="30" as="geometry" />
        </mxCell>
        <mxCell id="A__z8Hzm43A7AwqE4cdJ-24" value="Give" style="text;html=1;align=center;verticalAlign=middle;whiteSpace=wrap;rounded=0;" vertex="1" parent="1">
          <mxGeometry x="260" y="395" width="60" height="30" as="geometry" />
        </mxCell>
      </root>
    </mxGraphModel>
  </diagram>
</mxfile>
